<?xml version="1.0" encoding="UTF-8" standalone="no"?>
<!-- Created with Inkscape (http://www.inkscape.org/) -->

<svg
   width="100mm"
   height="100mm"
   viewBox="0 0 1 1"
   version="1.1"
   id="svg1"
   xmlns="http://www.w3.org/2000/svg"
   xmlns:svg="http://www.w3.org/2000/svg">
  <defs
     id="defs1" />
  <path
     id="rect1"
     style="fill:#000000;stroke-width:0.264583"
     d="m 26.208219,0 c -2e-6,23.000741 0,47.095046 -7e-6,68.630897 0,1.408974 0.832303,3.333407 1.859001,4.298341 l 12.880221,12.105368 a 15.909206,15.909206 52.334007 0 1 3.078496,3.987998 l 4.754625,8.736666 a 1.3843607,1.3843607 179.93019 0 0 2.433524,-0.003 l 4.723858,-8.730736 a 15.72368,15.72368 127.63203 0 1 3.075217,-3.988635 L 71.930683,72.92691 A 5.8886474,5.8886474 113.424 0 0 73.79187,68.630897 L 73.791878,0 Z"
     transform="matrix(0.02101562,0,0,0.01017854,-0.55078197,0)" />
</svg>
