<?xml version="1.0" encoding="UTF-8" standalone="no"?>
<!-- Created with Inkscape (http://www.inkscape.org/) -->

<svg
   width="100mm"
   height="100mm"
   viewBox="0 0 1 1"
   version="1.1"
   id="svg1"
   xmlns="http://www.w3.org/2000/svg"
   xmlns:svg="http://www.w3.org/2000/svg">
  <defs
     id="defs1" />
  <g
     id="layer1">
    <path
       id="path1"
       style="stroke-width:0.264583"
       transform="matrix(0.01381876,0,0,0.01381876,0.24663731,0.14580931)"
       d="m 46.579409,47.0934 c -6.123221,3.735991 -17.483213,10.294685 -23.780264,13.72954 -2.42215,1.321211 -6.506779,1.321201 -8.928951,-2.3e-5 -6.2970738,-3.434869 -17.6570653,-9.993563 -23.7802631,-13.729542 -2.3552769,-1.437038 -4.3975839,-4.974435 -4.4644559,-7.73271 -0.173853,-7.17086 -0.173852,-20.288249 1e-6,-27.459083 0.06687,-2.7582483 2.109196,-6.2956365 4.464495,-7.7326871 6.1232208,-3.73599128 17.4832128,-10.2946854 23.780264,-13.7295409 2.42215,-1.321211 6.506779,-1.321201 8.928951,2.26e-5 6.297074,3.4348693 17.657065,9.99356414 23.780263,13.7295431 2.355277,1.4370375 4.397584,4.9744354 4.464456,7.7327093 0.173853,7.170861 0.173853,20.288249 -1e-6,27.459083 -0.06687,2.758249 -2.109196,6.295637 -4.464495,7.732688 z" />
  </g>
</svg>
